<svg width="12" height="12" viewBox="0 0 12 12" fill="none" xmlns="http://www.w3.org/2000/svg">
<path d="M7.68781 0V0.82088H10.5999L6.94994 4.47079L7.52927 5.05012L11.1792 1.40021V4.31225H12.0001V6.54709e-05L7.68781 0Z" fill="black"/>
<path d="M4.31211 0.820919V3.93107e-05H-7.62939e-05V4.31223H0.820804V1.40018L4.47072 5.0501L5.05005 4.47077L1.40013 0.820854L4.31211 0.820919Z" fill="black"/>
<path d="M11.1791 10.5998L7.52916 6.94988L6.94983 7.52921L10.5997 11.1791H7.6877V12H11.9999V7.68781H11.179L11.1791 10.5998Z" fill="black"/>
<path d="M4.47077 6.94988L0.820856 10.5998V7.68775H-2.38641e-05V11.9999H4.31216V11.1791H1.40012L5.05003 7.52914L4.47077 6.94988Z" fill="black"/>
</svg>
